<svg width="137" height="93" viewBox="0 0 137 93" fill="none" xmlns="http://www.w3.org/2000/svg">
<path d="M38.656 51.328C37.12 51.328 35.4133 51.2427 33.536 51.072C31.6587 50.9013 29.5253 50.56 27.136 50.048V75.136C27.136 77.7813 27.2213 79.872 27.392 81.408C27.5627 82.8587 28.0747 83.968 28.928 84.736C29.8667 85.504 31.1467 86.016 32.768 86.272C34.4747 86.528 37.1627 86.784 40.832 87.04C41.0027 88.4053 41.0027 89.7707 40.832 91.136C38.9547 91.136 36.6933 91.0933 34.048 91.008C31.488 91.008 28.928 91.008 26.368 91.008C23.8933 90.9227 21.8027 90.88 20.096 90.88C18.4747 90.88 16.4267 90.9227 13.952 91.008C11.5627 91.008 9.13067 91.008 6.656 91.008C4.26667 91.0933 2.13333 91.136 0.256001 91.136C0.0853338 89.856 0.0853338 88.4907 0.256001 87.04C4.352 86.6133 7.296 86.2293 9.088 85.888C10.88 85.4613 11.9893 84.608 12.416 83.328C12.8427 82.048 13.056 79.872 13.056 76.8V17.28C13.056 13.696 12.8427 11.136 12.416 9.59999C11.9893 8.06399 10.88 7.08266 9.088 6.65599C7.296 6.14399 4.352 5.71733 0.256001 5.37599C0.0853338 4.09599 0.0853338 2.73066 0.256001 1.27999C1.96267 1.27999 4.096 1.32266 6.656 1.40799C9.30133 1.40799 11.8613 1.45066 14.336 1.53599C16.8107 1.53599 18.6027 1.53599 19.712 1.53599C21.3333 1.53599 23.3387 1.53599 25.728 1.53599C28.2027 1.45066 30.6347 1.36532 33.024 1.27999C35.4133 1.19466 37.2907 1.15199 38.656 1.15199C44.032 1.15199 49.024 1.91999 53.632 3.45599C58.24 4.90666 61.952 7.33866 64.768 10.752C67.584 14.1653 68.992 18.8587 68.992 24.832C68.992 30.5493 67.6693 35.3707 65.024 39.296C62.3787 43.2213 58.752 46.208 54.144 48.256C49.6213 50.304 44.4587 51.328 38.656 51.328ZM27.136 44.928C28.2453 45.184 29.4827 45.44 30.848 45.696C32.2133 45.952 33.664 46.08 35.2 46.08C40.832 46.08 45.2693 44.2027 48.512 40.448C51.7547 36.608 53.376 31.616 53.376 25.472C53.376 19.4987 51.7547 14.8053 48.512 11.392C45.2693 7.97866 40.4053 6.27199 33.92 6.27199C33.0667 6.27199 32 6.31466 30.72 6.39999C29.5253 6.48533 28.3307 6.61332 27.136 6.78399V44.928ZM104.934 92.8C104.849 92.8 103.441 92.7147 100.71 92.544C98.0647 92.4587 94.9927 92.1173 91.494 91.52C88.5927 91.008 85.9473 90.6667 83.558 90.496C81.254 90.24 79.846 90.112 79.334 90.112C79.2487 83.0293 78.8647 74.4533 78.182 64.384C78.8647 64.2987 79.5473 64.256 80.23 64.256C80.998 64.256 81.6807 64.256 82.278 64.256C83.8993 71.7653 86.5873 77.568 90.342 81.664C94.182 85.76 99.2167 87.808 105.446 87.808C110.993 87.808 115.515 86.3147 119.014 83.328C122.513 80.256 124.262 76.2453 124.262 71.296C124.262 67.5413 123.281 64.4693 121.318 62.08C119.441 59.6907 116.923 57.6853 113.766 56.064C110.694 54.3573 107.409 52.7787 103.91 51.328C99.814 49.536 95.8887 47.6587 92.134 45.696C88.4647 43.648 85.4353 41.0453 83.046 37.888C80.6567 34.7307 79.462 30.6347 79.462 25.6C79.462 20.224 80.7847 15.616 83.43 11.776C86.1607 7.93599 89.7873 5.03466 94.31 3.07199C98.8327 1.02399 103.825 -7.62939e-06 109.286 -7.62939e-06C110.993 -7.62939e-06 112.742 0.0853246 114.534 0.255989C116.411 0.426659 118.331 0.68266 120.294 1.02399C122.769 1.36532 124.646 1.57866 125.926 1.66399C127.291 1.74933 128.187 1.79199 128.614 1.79199C128.87 1.79199 129.339 1.79199 130.022 1.79199C130.705 1.70666 131.259 1.62133 131.686 1.53599C131.857 5.29066 132.027 9.17332 132.198 13.184C132.369 17.1947 132.625 21.376 132.966 25.728C131.259 25.984 129.851 26.0693 128.742 25.984C126.779 18.56 124.347 13.2267 121.446 9.98399C118.545 6.65599 114.406 4.99199 109.03 4.99199C104.337 4.99199 100.326 6.27199 96.998 8.83199C93.67 11.3067 92.006 15.0187 92.006 19.968C92.006 22.6133 92.6033 24.96 93.798 27.008C95.078 29.056 97.1687 31.0187 100.07 32.896C102.971 34.7733 106.982 36.7787 112.102 38.912C114.918 40.1067 117.734 41.4293 120.55 42.88C123.451 44.3307 126.097 46.08 128.486 48.128C130.875 50.0907 132.795 52.5227 134.246 55.424C135.697 58.24 136.422 61.6107 136.422 65.536C136.422 71.3387 134.971 76.288 132.07 80.384C129.169 84.3947 125.329 87.4667 120.55 89.6C115.857 91.7333 110.651 92.8 104.934 92.8Z" fill="white"/>
</svg>
